<svg
  width="200"  
  height="200" 
  viewBox="0 0 64 64"
  fill="none"
  xmlns="http://www.w3.org/2000/svg"
>
  <defs>
    <linearGradient id="busGradient" x1="8" y1="10" x2="56" y2="54" gradientUnits="userSpaceOnUse">
      <stop offset="0%" stop-color="#8B5CF6" />
      <stop offset="100%" stop-color="#6366F1" />
    </linearGradient>

    <linearGradient id="glassGradient" x1="20" y1="18" x2="44" y2="32" gradientUnits="userSpaceOnUse">
      <stop offset="0%" stop-color="#FFFFFF" stop-opacity="0.95" />
      <stop offset="100%" stop-color="#CFFAFE" stop-opacity="0.75" />
    </linearGradient>
  </defs>

  <rect x="4" y="23" width="10" height="3" rx="2" fill="#22D3EE" fill-opacity="0.9" />
  <rect x="2" y="30" width="14" height="3" rx="2" fill="#22D3EE" fill-opacity="0.55" />
  <rect x="6" y="37" width="8" height="3" rx="2" fill="#22D3EE" fill-opacity="0.35" />

  <rect
    x="16"
    y="18"
    width="34"
    height="24"
    rx="8"
    fill="url(#busGradient)"
  />

  <path
    d="M50 24C50 21.8 48.2 20 46 20H44V42H46C48.2 42 50 40.2 50 38V24Z"
    fill="#4F46E5"
  />

  <rect x="21" y="23" width="9" height="8" rx="2" fill="url(#glassGradient)" />
  <rect x="32" y="23" width="9" height="8" rx="2" fill="url(#glassGradient)" />

  <rect x="42" y="23" width="5" height="15" rx="2" fill="#E0E7FF" fill-opacity="0.9" />

  <circle cx="49" cy="34" r="2" fill="#FDE68A" />

  <circle cx="24" cy="45" r="5" fill="#0F172A" />
  <circle cx="24" cy="45" r="2.2" fill="#94A3B8" />

  <circle cx="42" cy="45" r="5" fill="#0F172A" />
  <circle cx="42" cy="45" r="2.2" fill="#94A3B8" />
</svg>
